# The.Transporter.2002.1080p.BluRay.REMUX.MPEG-2.DTS-HD.MA.5.1-FraMeSToR

```text
General
Unique ID                                : 204561089146903259850125893047201835948
Complete name                            : The.Transporter.2002.1080p.BluRay.REMUX.MPEG-2.DTS-HD.MA.5.1-FraMeSToR.mkv
Format                                   : Matroska
Format version                           : Version 1
File size                                : 15.3 GiB
Duration                                 : 1 h 31 min 56 s
Overall bit rate mode                    : Variable
Overall bit rate                         : 23.8 Mb/s
Encoded date                             : UTC 2006-11-14 08:00:00
Writing application                      : mkvmerge v1.8.0 ('Over The Rainbow') built on Nov  5 2006
Writing library                          : libebml v0.7.7 + libmatroska v0.8.0

Video
ID                                       : 1
Format                                   : MPEG Video
Format version                           : Version 2
Format profile                           : Main@High
Format settings, BVOP                    : Yes
Format settings, Matrix                  : Custom
Codec ID                                 : V_MPEG2
Codec ID/Info                            : MPEG 1 or 2 Video
Duration                                 : 1 h 31 min 56 s
Bit rate mode                            : Variable
Bit rate                                 : 18.8 Mb/s
Maximum bit rate                         : 30.0 Mb/s
Width                                    : 1 920 pixels
Height                                   : 1 080 pixels
Display aspect ratio                     : 16:9
Frame rate mode                          : Constant
Frame rate                               : 23.976 (24000/1001) FPS
Color space                              : YUV
Chroma subsampling                       : 4:2:0
Bit depth                                : 8 bits
Scan type                                : Progressive
Compression mode                         : Lossy
Bits/(Pixel*Frame)                       : 0.378
Stream size                              : 12.1 GiB (79%)
Language                                 : English
Default                                  : Yes
Forced                                   : No

Audio #1
ID                                       : 2
Format                                   : DTS
Format/Info                              : Digital Theater Systems
Format profile                           : MA / Core
Codec ID                                 : A_DTS
Duration                                 : 1 h 31 min 56 s
Bit rate mode                            : Variable / Constant
Bit rate                                 : 3 818 kb/s / 1 509 kb/s
Channel(s)                               : 6 channels
Channel positions                        : Front: L C R, Side: L R, LFE
Sampling rate                            : 48.0 kHz
Frame rate                               : 93.750 FPS (512 SPF)
Bit depth                                : 24 bits
Compression mode                         : Lossless / Lossy
Stream size                              : 2.45 GiB (16%)
Language                                 : English
Service kind                             : Complete Main
Default                                  : Yes
Forced                                   : No

Audio #2
ID                                       : 3
Format                                   : AC-3
Format/Info                              : Audio Coding 3
Commercial name                          : Dolby Digital
Codec ID                                 : A_AC3
Duration                                 : 1 h 31 min 56 s
Bit rate mode                            : Constant
Bit rate                                 : 448 kb/s
Channel(s)                               : 6 channels
Channel positions                        : Front: L C R, Side: L R, LFE
Sampling rate                            : 48.0 kHz
Frame rate                               : 31.250 FPS (1536 SPF)
Bit depth                                : 16 bits
Compression mode                         : Lossy
Stream size                              : 295 MiB (2%)
Language                                 : French
Service kind                             : Complete Main
Default                                  : No
Forced                                   : No

Audio #3
ID                                       : 4
Format                                   : AC-3
Format/Info                              : Audio Coding 3
Commercial name                          : Dolby Digital
Codec ID                                 : A_AC3
Duration                                 : 1 h 31 min 56 s
Bit rate mode                            : Constant
Bit rate                                 : 448 kb/s
Channel(s)                               : 6 channels
Channel positions                        : Front: L C R, Side: L R, LFE
Sampling rate                            : 48.0 kHz
Frame rate                               : 31.250 FPS (1536 SPF)
Bit depth                                : 16 bits
Compression mode                         : Lossy
Stream size                              : 295 MiB (2%)
Language                                 : Spanish
Service kind                             : Complete Main
Default                                  : No
Forced                                   : No

Text #1
ID                                       : 5
Format                                   : PGS
Codec ID                                 : S_HDMV/PGS
Codec ID/Info                            : Picture based subtitle format used on BDs
Duration                                 : 1 h 29 min 44 s
Bit rate                                 : 30.2 kb/s
Frame rate                               : 0.334 FPS
Element count                            : 1801
Stream size                              : 19.5 MiB (0%)
Language                                 : English
Default                                  : No
Forced                                   : No

Text #2
ID                                       : 6
Format                                   : PGS
Codec ID                                 : S_HDMV/PGS
Codec ID/Info                            : Picture based subtitle format used on BDs
Duration                                 : 1 h 27 min 12 s
Bit rate                                 : 24.5 kb/s
Frame rate                               : 0.281 FPS
Element count                            : 1475
Stream size                              : 15.3 MiB (0%)
Language                                 : Spanish
Default                                  : No
Forced                                   : No
```
